<svg width="35" height="35" viewBox="0 0 35 35" fill="none" xmlns="http://www.w3.org/2000/svg">
<path d="M11.6667 2.91666V7.29166M23.3333 2.91666V7.29166M5.10417 13.2562H29.8958M28.0146 22.9979L22.8521 28.1604C22.6479 28.3646 22.4583 28.7437 22.4146 29.0208L22.1375 30.9896C22.0354 31.7042 22.5312 32.2 23.2458 32.0979L25.2146 31.8208C25.4917 31.7771 25.8854 31.5875 26.075 31.3833L31.2375 26.2208C32.1271 25.3312 32.55 24.2958 31.2375 22.9833C29.9396 21.6854 28.9042 22.1083 28.0146 22.9979Z" stroke="#505050" stroke-width="1.5" stroke-miterlimit="10" stroke-linecap="round" stroke-linejoin="round"/>
<path d="M27.2708 23.7417C27.7083 25.3167 28.9333 26.5417 30.5083 26.9792M17.5 32.0833H11.6667C6.5625 32.0833 4.375 29.1667 4.375 24.7917V12.3958C4.375 8.02082 6.5625 5.10416 11.6667 5.10416H23.3333C28.4375 5.10416 30.625 8.02082 30.625 12.3958V17.5" stroke="#505050" stroke-width="1.5" stroke-miterlimit="10" stroke-linecap="round" stroke-linejoin="round"/>
<path d="M17.4927 19.9792H17.5073M12.0954 19.9792H12.11M12.0954 24.3542H12.11" stroke="#505050" stroke-width="2" stroke-linecap="round" stroke-linejoin="round"/>
</svg>
