<svg width="35" height="35" viewBox="0 0 35 35" fill="none" xmlns="http://www.w3.org/2000/svg">
<path d="M32.0833 9.11457V16.5521C32.0833 18.4042 31.4708 19.9646 30.3771 21.0437C29.2979 22.1375 27.7375 22.75 25.8854 22.75V25.3896C25.8854 26.3812 24.7771 26.9792 23.9604 26.425L22.5458 25.4917C22.6771 25.0396 22.7354 24.5437 22.7354 24.0187V18.0833C22.7354 15.1083 20.7521 13.125 17.7771 13.125H7.875C7.67083 13.125 7.48125 13.1396 7.29166 13.1542V9.11457C7.29166 5.39582 9.77083 2.91666 13.4896 2.91666H25.8854C29.6042 2.91666 32.0833 5.39582 32.0833 9.11457Z" stroke="#FF5F8F" stroke-width="1.5" stroke-miterlimit="10" stroke-linecap="round" stroke-linejoin="round"/>
<path d="M22.7354 18.0833V24.0187C22.7354 24.5437 22.6771 25.0396 22.5458 25.4917C22.0062 27.6354 20.2271 28.9771 17.7771 28.9771H13.8104L9.40625 31.9083C9.25861 32.0094 9.08609 32.0681 8.90745 32.0779C8.7288 32.0878 8.55087 32.0485 8.39301 31.9643C8.23514 31.8801 8.10338 31.7542 8.01205 31.6004C7.92072 31.4465 7.87332 31.2706 7.875 31.0917V28.9771C6.3875 28.9771 5.14791 28.4813 4.2875 27.6208C3.4125 26.7458 2.91666 25.5062 2.91666 24.0187V18.0833C2.91666 15.3125 4.6375 13.4021 7.29166 13.1542C7.48125 13.1396 7.67083 13.125 7.875 13.125H17.7771C20.7521 13.125 22.7354 15.1083 22.7354 18.0833V18.0833Z" stroke="#FF5F8F" stroke-width="1.5" stroke-miterlimit="10" stroke-linecap="round" stroke-linejoin="round"/>
</svg>
