<svg width="35" height="35" viewBox="0 0 35 35" fill="none" xmlns="http://www.w3.org/2000/svg">
<path d="M32.0833 17.5C32.0833 9.44999 25.55 2.91666 17.5 2.91666C9.45 2.91666 2.91667 9.44999 2.91667 17.5C2.91667 25.55 9.45 32.0833 17.5 32.0833" stroke="#505050" stroke-width="1.5" stroke-linecap="round" stroke-linejoin="round"/>
<path d="M11.6667 4.375H13.125C10.2813 12.894 10.2813 22.106 13.125 30.625H11.6667M21.875 4.375C23.2896 8.63333 24.0042 13.0667 24.0042 17.5" stroke="#505050" stroke-width="1.5" stroke-linecap="round" stroke-linejoin="round"/>
<path d="M4.375 23.3333V21.875C8.63333 23.2896 13.0667 24.0042 17.5 24.0042M4.375 13.125C12.894 10.2813 22.106 10.2813 30.625 13.125M32.0833 32.0833L30.625 30.625M26.5417 31.2083C27.7793 31.2083 28.9663 30.7167 29.8415 29.8415C30.7167 28.9663 31.2083 27.7793 31.2083 26.5417C31.2083 25.304 30.7167 24.117 29.8415 23.2418C28.9663 22.3667 27.7793 21.875 26.5417 21.875C25.304 21.875 24.117 22.3667 23.2418 23.2418C22.3667 24.117 21.875 25.304 21.875 26.5417C21.875 27.7793 22.3667 28.9663 23.2418 29.8415C24.117 30.7167 25.304 31.2083 26.5417 31.2083Z" stroke="#505050" stroke-width="1.5" stroke-linecap="round" stroke-linejoin="round"/>
</svg>
