<svg width="22" height="20" viewBox="0 0 22 20" fill="none" xmlns="http://www.w3.org/2000/svg">
<path d="M21 4.5H15M5 4.5H1M21 15.5H17M7 15.5H1M9 8C9.45963 8 9.91475 7.90947 10.3394 7.73358C10.764 7.55769 11.1499 7.29988 11.4749 6.97487C11.7999 6.64987 12.0577 6.26403 12.2336 5.83939C12.4095 5.41475 12.5 4.95963 12.5 4.5C12.5 4.04037 12.4095 3.58525 12.2336 3.16061C12.0577 2.73597 11.7999 2.35013 11.4749 2.02513C11.1499 1.70012 10.764 1.44231 10.3394 1.26642C9.91475 1.09053 9.45963 1 9 1C8.07174 1 7.1815 1.36875 6.52513 2.02513C5.86875 2.6815 5.5 3.57174 5.5 4.5C5.5 5.42826 5.86875 6.3185 6.52513 6.97487C7.1815 7.63125 8.07174 8 9 8V8ZM13 19C13.9283 19 14.8185 18.6313 15.4749 17.9749C16.1313 17.3185 16.5 16.4283 16.5 15.5C16.5 14.5717 16.1313 13.6815 15.4749 13.0251C14.8185 12.3687 13.9283 12 13 12C12.0717 12 11.1815 12.3687 10.5251 13.0251C9.86875 13.6815 9.5 14.5717 9.5 15.5C9.5 16.4283 9.86875 17.3185 10.5251 17.9749C11.1815 18.6313 12.0717 19 13 19V19Z" stroke="#505050" stroke-width="1.5" stroke-miterlimit="10" stroke-linecap="round" stroke-linejoin="round"/>
</svg>
